<svg id="svg" version="1.1" width="400" height="400" xmlns="http://www.w3.org/2000/svg" xmlns:xlink="http://www.w3.org/1999/xlink" style="display: block;"><g id="svgg"><path id="path0" d="M93.578 152.337 C 92.524 152.889,91.758 153.814,91.749 154.541 C 91.744 155.004,91.616 154.944,90.967 154.172 C 88.560 151.309,83.359 153.106,82.903 156.958 C 82.663 158.988,82.811 159.170,86.886 161.853 C 90.145 163.998,92.590 166.038,92.590 166.611 C 92.590 167.150,93.195 166.758,93.450 166.055 C 94.022 164.476,94.470 163.829,96.429 161.755 C 100.651 157.286,101.116 156.132,99.756 153.502 C 98.950 151.942,95.552 151.301,93.578 152.337 M236.955 156.267 C 237.562 156.489,238.120 156.611,238.194 156.537 C 238.374 156.356,236.924 155.817,236.326 155.842 C 236.064 155.853,236.347 156.044,236.955 156.267 M105.458 158.952 C 101.868 159.822,97.599 163.259,95.741 166.774 C 95.151 167.889,92.408 176.223,88.375 189.149 C 84.841 200.478,81.856 209.840,81.741 209.954 C 80.690 211.002,62.103 209.058,62.103 207.901 C 62.103 207.707,62.532 206.358,63.057 204.903 C 64.391 201.205,74.328 169.082,74.182 168.936 C 73.946 168.700,67.624 170.714,67.399 171.097 C 67.273 171.313,64.755 179.289,61.804 188.823 C 55.060 210.615,52.090 217.964,46.880 225.753 C 40.221 235.709,30.055 237.483,19.085 230.604 C 15.870 228.589,16.262 228.599,14.399 230.485 C 12.610 232.296,12.562 232.205,16.034 233.580 C 27.951 238.301,41.056 237.142,47.952 230.758 C 50.619 228.289,55.149 221.461,59.055 214.024 C 60.007 212.210,60.817 210.686,60.854 210.636 C 61.011 210.423,62.836 211.577,65.436 213.536 C 70.317 217.213,74.394 222.050,76.384 226.524 L 77.205 228.371 79.716 228.300 L 82.227 228.229 84.694 220.381 C 87.598 211.144,86.845 212.259,90.395 211.940 C 93.576 211.654,93.591 211.647,93.878 210.485 L 94.078 209.679 91.075 209.884 C 89.406 209.998,88.073 209.980,88.073 209.843 C 88.070 208.916,101.854 166.921,102.681 165.337 C 104.288 162.259,106.544 160.627,109.198 160.623 C 110.274 160.621,110.284 160.216,109.227 159.453 C 108.339 158.812,106.852 158.615,105.458 158.952 M191.000 167.413 C 186.887 168.432,181.085 173.996,176.413 181.400 L 175.859 182.279 177.434 184.435 C 179.376 187.094,179.044 187.196,181.228 183.272 C 186.154 174.420,190.701 168.813,192.957 168.808 C 195.712 168.803,194.471 173.784,186.661 194.072 C 179.941 211.529,178.508 216.458,178.741 221.313 C 178.986 226.438,181.612 228.884,186.558 228.595 C 195.084 228.096,205.432 215.604,220.181 188.003 C 222.907 182.902,224.288 180.491,224.062 181.228 C 223.635 182.620,214.459 209.027,212.977 213.126 C 205.666 233.357,198.929 243.510,191.543 245.433 C 187.976 246.362,185.172 245.797,177.362 242.575 C 177.060 242.450,175.018 246.017,175.018 246.668 C 175.018 247.250,180.806 247.989,185.321 247.983 C 200.017 247.964,208.397 240.025,217.240 217.742 C 219.192 212.825,233.801 169.431,233.670 168.942 C 233.621 168.761,232.406 168.907,230.416 169.334 L 227.240 170.015 223.590 177.386 C 208.142 208.577,194.584 226.680,186.583 226.797 C 181.546 226.871,182.278 221.361,189.845 202.246 C 194.383 190.781,195.825 186.681,196.738 182.639 C 197.071 181.164,197.447 179.566,197.573 179.087 C 197.698 178.609,197.788 176.703,197.771 174.853 C 197.718 168.803,195.450 166.311,191.000 167.413 M147.382 167.882 C 141.958 170.553,133.832 187.730,127.313 210.303 L 125.886 215.243 123.869 217.274 C 122.142 219.013,121.905 219.368,122.217 219.744 C 122.720 220.350,122.918 220.306,124.015 219.343 L 124.972 218.502 124.450 220.684 C 123.133 226.190,124.169 228.652,127.805 228.652 C 131.457 228.652,138.441 224.699,137.120 223.379 C 136.714 222.973,136.483 223.061,134.521 224.374 C 128.314 228.525,127.505 226.547,130.717 215.073 L 131.871 210.950 134.423 208.157 C 145.420 196.120,151.588 183.435,151.588 172.856 C 151.588 168.070,150.239 166.474,147.382 167.882 M149.884 170.483 C 150.313 171.283,150.241 174.611,149.736 177.315 C 148.053 186.338,142.650 196.400,134.287 206.086 L 133.218 207.325 134.234 204.509 C 143.668 178.362,148.490 167.878,149.884 170.483 M41.612 191.059 C 39.310 192.510,39.194 193.287,40.420 199.012 C 40.820 200.876,40.955 202.318,40.864 203.740 C 40.793 204.866,40.763 205.787,40.798 205.787 C 40.834 205.787,41.354 205.577,41.956 205.320 C 42.724 204.991,44.416 204.786,47.655 204.630 C 53.415 204.351,53.896 204.205,54.587 202.524 C 56.128 198.774,52.153 194.263,48.836 195.997 L 48.130 196.366 48.222 195.078 C 48.443 191.975,44.227 189.412,41.612 191.059 M32.604 206.974 C 30.393 207.747,29.177 209.218,28.791 211.586 C 28.406 213.955,29.379 215.238,35.049 219.837 C 37.096 221.497,39.520 224.533,39.520 225.438 C 39.520 226.138,39.930 225.849,40.601 224.674 C 41.605 222.917,43.008 221.497,46.128 219.081 C 48.944 216.901,51.941 213.992,51.941 213.439 C 51.941 211.539,50.755 209.059,49.365 208.052 C 46.367 205.881,41.857 206.550,40.404 209.382 C 39.887 210.389,39.885 210.390,39.705 209.673 C 39.160 207.500,35.299 206.032,32.604 206.974 M150.600 209.343 C 143.563 210.912,137.680 217.956,138.469 223.867 C 139.208 229.411,145.679 230.122,150.566 225.196 C 152.066 223.684,152.872 222.606,154.877 219.429 C 155.056 219.145,154.834 220.168,154.383 221.701 C 152.872 226.843,153.545 228.370,157.318 228.370 C 160.269 228.370,166.108 224.917,165.553 223.500 C 165.274 222.788,165.010 222.870,163.365 224.178 C 160.837 226.187,158.956 226.763,158.531 225.658 C 158.404 225.326,161.238 216.514,163.277 210.903 C 163.524 210.224,163.726 209.620,163.726 209.562 C 163.726 209.390,160.287 209.448,159.128 209.640 C 158.069 209.815,158.037 209.860,155.815 214.252 C 152.128 221.542,149.713 224.722,147.243 225.537 C 143.251 226.854,142.827 221.082,146.510 215.575 C 149.477 211.139,151.991 209.821,154.936 211.157 C 155.612 211.464,156.195 211.715,156.231 211.715 C 156.407 211.715,157.021 209.433,156.883 209.294 C 156.488 208.900,152.448 208.931,150.600 209.343 M288.638 209.072 C 281.125 210.222,275.371 216.104,275.371 222.632 C 275.371 226.875,276.690 228.372,280.423 228.367 C 284.085 228.362,286.983 226.327,290.263 221.459 C 291.207 220.059,291.897 219.140,291.796 219.416 C 289.311 226.242,290.031 228.607,294.507 228.323 C 297.987 228.101,303.961 223.897,301.912 223.111 C 301.671 223.018,300.995 223.379,300.308 223.967 C 298.782 225.273,296.555 226.381,295.835 226.193 C 294.922 225.954,295.122 225.004,297.636 217.643 C 298.935 213.839,300.087 210.441,300.195 210.092 C 300.386 209.471,300.344 209.457,298.325 209.490 C 294.815 209.547,294.935 209.462,293.140 213.126 C 288.203 223.206,284.292 227.347,281.662 225.278 C 277.134 221.716,286.369 208.481,291.541 211.119 C 292.183 211.447,292.772 211.715,292.850 211.715 C 293.069 211.715,293.688 209.472,293.515 209.300 C 293.301 209.085,289.660 208.915,288.638 209.072 M337.665 209.185 C 335.174 209.447,335.623 208.943,334.280 212.985 C 331.468 221.453,331.542 226.009,334.525 228.043 C 339.215 231.243,348.221 222.611,352.410 210.902 L 353.155 208.819 352.265 208.996 C 351.776 209.094,350.952 209.174,350.434 209.174 C 349.561 209.174,349.471 209.261,349.197 210.374 C 346.307 222.100,339.095 230.227,337.312 223.768 C 336.947 222.446,339.017 213.347,340.585 209.386 C 340.803 208.835,340.929 208.843,337.665 209.185 M107.128 209.566 C 100.029 211.297,95.208 219.255,97.914 224.776 C 100.343 229.732,109.336 229.690,114.326 224.700 C 121.779 217.247,116.983 207.164,107.128 209.566 M234.862 209.466 C 228.287 210.843,223.364 217.932,224.979 223.699 C 226.597 229.480,235.884 230.190,241.476 224.960 C 249.187 217.746,244.768 207.393,234.862 209.466 M260.974 209.593 C 251.553 211.670,245.252 220.154,248.448 226.459 C 250.563 230.629,258.143 227.993,262.838 221.455 C 263.340 220.756,263.791 220.225,263.841 220.274 C 264.056 220.490,261.110 229.368,260.735 229.631 C 260.506 229.791,259.140 230.748,257.699 231.757 C 252.305 235.534,249.009 239.334,248.417 242.459 C 247.153 249.122,254.939 250.148,259.858 243.966 C 261.632 241.736,263.967 236.880,265.458 232.322 L 266.704 228.511 268.785 227.241 C 273.276 224.498,274.080 223.804,273.532 223.143 C 273.250 222.803,272.950 222.908,271.603 223.816 C 269.323 225.352,267.325 226.482,267.325 226.236 C 267.325 226.120,268.088 223.439,269.019 220.279 C 271.049 213.393,271.023 214.087,269.262 213.853 C 268.464 213.748,267.463 213.591,267.039 213.507 C 266.323 213.363,266.183 213.503,265.121 215.427 C 258.874 226.741,250.300 230.014,254.124 219.624 C 257.161 211.372,264.019 208.480,270.167 212.858 L 271.005 213.454 271.404 212.498 C 272.417 210.074,272.457 210.141,269.676 209.631 C 266.727 209.089,263.324 209.074,260.974 209.593 M370.628 209.553 C 367.642 210.373,364.292 213.838,361.785 218.701 C 360.954 220.315,361.082 219.724,362.662 214.661 C 363.512 211.935,364.150 209.645,364.079 209.574 C 363.962 209.457,358.177 210.234,358.063 210.383 C 357.954 210.524,353.423 227.801,353.423 228.073 C 353.423 228.260,354.418 228.370,356.104 228.370 C 357.928 228.370,358.786 228.267,358.786 228.047 C 358.786 227.440,362.670 219.682,364.015 217.602 C 366.650 213.527,368.976 211.417,370.351 211.853 C 371.573 212.241,371.474 213.005,369.327 219.760 C 367.102 226.762,367.671 228.652,372.001 228.652 C 375.094 228.651,381.235 224.544,380.070 223.256 C 379.618 222.758,379.537 222.794,378.028 224.173 C 375.977 226.047,374.241 226.921,373.610 226.397 C 373.039 225.923,373.116 225.568,375.045 219.784 C 377.836 211.420,376.351 207.981,370.628 209.553 M69.442 211.301 C 71.073 211.522,74.344 211.789,76.711 211.894 C 79.079 211.999,81.016 212.160,81.016 212.253 C 81.017 212.345,80.171 215.048,79.138 218.259 L 77.259 224.098 76.294 222.493 C 73.983 218.651,70.914 215.330,66.854 212.278 C 64.727 210.678,64.597 210.528,65.490 210.704 C 66.034 210.811,67.812 211.080,69.442 211.301 M111.519 210.876 C 113.458 211.914,113.187 216.743,110.923 221.486 C 106.803 230.119,100.271 228.158,103.294 219.195 C 105.480 212.715,108.758 209.399,111.519 210.876 M239.357 211.317 C 242.619 214.061,237.181 226.958,232.762 226.958 C 229.465 226.958,229.043 222.598,231.761 216.602 C 234.147 211.337,237.013 209.344,239.357 211.317 M259.134 235.621 C 256.823 242.628,255.405 245.452,253.776 246.295 C 249.470 248.521,249.509 242.120,253.831 237.279 C 255.251 235.687,260.010 231.687,260.226 231.903 C 260.281 231.958,259.790 233.632,259.134 235.621 " stroke="none" fill="#000000" fill-rule="evenodd"></path><path id="path1" d="" stroke="none" fill="#550055" fill-rule="evenodd"></path><path id="path2" d="" stroke="none" fill="#6d006d" fill-rule="evenodd"></path><path id="path3" d="" stroke="none" fill="#740074" fill-rule="evenodd"></path><path id="path4" d="M314.013 215.844 C 312.698 216.731,312.501 217.002,312.496 217.925 C 312.492 218.597,312.424 218.626,311.065 218.532 C 308.497 218.354,306.692 219.637,306.770 221.584 C 306.796 222.243,306.651 222.816,306.406 223.019 C 305.231 223.995,306.157 227.327,307.698 227.665 L 308.550 227.852 307.839 228.697 C 306.432 230.369,307.267 232.928,309.356 233.346 C 309.929 233.461,310.297 233.771,310.532 234.340 C 311.373 236.369,314.822 236.149,316.140 233.982 L 316.659 233.129 317.279 234.000 C 319.033 236.463,321.279 236.377,323.827 233.747 C 325.992 231.512,326.467 230.259,325.672 228.875 C 325.238 228.118,325.246 228.066,325.869 227.659 C 327.214 226.777,327.732 223.432,326.641 222.668 C 326.336 222.454,326.112 221.959,326.112 221.502 C 326.112 220.267,324.513 218.772,323.194 218.772 C 322.231 218.772,322.138 218.699,321.970 217.806 C 321.478 215.182,316.727 214.011,314.013 215.844 M320.380 216.640 C 321.500 217.713,321.490 218.685,320.346 220.310 C 319.655 221.290,319.364 221.511,319.079 221.274 C 318.875 221.105,318.527 221.037,318.305 221.122 C 318.083 221.207,317.826 221.080,317.734 220.840 C 317.451 220.103,316.652 220.988,316.817 221.855 C 316.957 222.585,316.395 222.097,316.066 221.202 C 315.982 220.973,315.809 220.973,315.422 221.201 C 314.659 221.652,313.080 219.272,313.272 217.962 C 313.595 215.763,318.510 214.849,320.380 216.640 M312.022 219.319 C 312.923 219.662,313.800 220.612,314.154 221.629 C 314.432 222.425,314.428 222.429,313.772 221.999 C 312.816 221.373,312.543 222.015,313.379 222.924 L 314.044 223.648 313.378 223.301 C 312.571 222.880,311.863 223.337,312.435 223.910 C 312.896 224.371,312.860 224.700,312.350 224.700 C 311.812 224.700,311.795 225.436,312.328 225.641 C 312.574 225.735,312.671 226.020,312.577 226.377 C 312.394 227.079,307.742 227.275,307.185 226.604 C 306.584 225.879,306.520 224.785,307.016 223.682 C 307.287 223.077,307.479 222.134,307.441 221.585 C 307.317 219.767,309.874 218.503,312.022 219.319 M324.633 220.089 C 325.336 220.680,325.502 221.011,325.410 221.638 C 325.326 222.210,325.479 222.611,325.949 223.053 C 326.722 223.779,326.798 224.914,326.164 226.251 C 325.529 227.589,324.242 227.705,320.819 226.734 L 319.972 226.493 320.889 226.310 C 321.819 226.123,322.217 225.265,321.373 225.265 C 321.032 225.265,321.002 225.148,321.232 224.719 C 321.680 223.881,321.587 223.489,320.977 223.648 C 320.505 223.772,320.474 223.719,320.754 223.271 C 321.181 222.588,320.798 222.231,320.104 222.664 C 319.234 223.207,319.233 223.083,320.098 221.802 C 321.823 219.246,323.071 218.775,324.633 220.089 M312.400 227.709 C 311.965 228.143,312.823 228.646,313.438 228.318 C 313.990 228.024,314.008 228.038,313.646 228.477 C 313.116 229.119,313.661 229.768,314.292 229.245 C 314.636 228.959,314.680 228.999,314.553 229.483 C 314.393 230.095,315.114 230.334,315.455 229.781 C 315.881 229.092,316.161 229.624,316.160 231.122 C 316.157 234.756,312.150 236.798,311.000 233.752 C 310.784 233.179,310.441 232.886,309.846 232.767 C 307.254 232.248,307.513 228.126,310.162 227.725 C 311.496 227.523,312.593 227.515,312.400 227.709 M323.299 227.984 C 325.598 228.369,325.943 232.604,323.676 232.604 C 323.462 232.604,323.126 232.991,322.930 233.464 C 322.311 234.960,320.544 235.528,318.997 234.728 C 317.272 233.836,315.847 229.686,317.322 229.848 C 317.889 229.911,317.983 229.811,317.918 229.217 L 317.839 228.511 318.286 229.146 C 318.794 229.867,319.548 229.994,319.548 229.358 C 319.548 229.125,319.739 228.934,319.972 228.934 C 320.205 228.934,320.395 228.802,320.395 228.640 C 320.395 228.073,321.106 227.527,321.665 227.666 C 321.976 227.743,322.711 227.886,323.299 227.984 " stroke="none" fill="#7f007f" fill-rule="evenodd"></path></g></svg>